<?xml version="1.0" encoding="UTF-8"?><svg id="Layer_1" xmlns="http://www.w3.org/2000/svg" viewBox="0 0 90 45"><defs><style>.cls-1{fill:#231f20;stroke-width:0px;}</style></defs><path class="cls-1" d="m12.61,7.89l-1.94,1.15c-.36-.63-.71-1.04-1.04-1.23-.34-.22-.78-.33-1.33-.33-.66,0-1.22.19-1.65.56-.44.37-.66.84-.66,1.4,0,.77.58,1.4,1.73,1.87l1.58.65c1.29.52,2.23,1.16,2.83,1.91.6.75.89,1.67.89,2.76,0,1.46-.49,2.66-1.46,3.62-.98.96-2.2,1.44-3.65,1.44-1.38,0-2.51-.41-3.41-1.22-.88-.81-1.44-1.96-1.65-3.44l2.42-.53c.11.93.3,1.58.58,1.93.49.69,1.21,1.03,2.16,1.03.75,0,1.37-.25,1.86-.75.49-.5.74-1.13.74-1.9,0-.31-.04-.59-.13-.85-.09-.26-.22-.49-.4-.71s-.42-.42-.7-.61c-.29-.19-.63-.37-1.03-.54l-1.53-.64c-2.17-.92-3.26-2.26-3.26-4.03,0-1.19.46-2.19,1.37-2.99.91-.81,2.04-1.21,3.4-1.21,1.83,0,3.26.89,4.28,2.67Z"/><path class="cls-1" d="m20.58,7.77v13.61h-2.39V7.77h-3.65v-2.25h9.68v2.25h-3.64Z"/><path class="cls-1" d="m28.75,5.52v9.56c0,1.36.22,2.36.67,2.99.66.91,1.6,1.37,2.81,1.37s2.15-.46,2.82-1.37c.45-.61.67-1.61.67-2.99V5.52h2.39v10.21c0,1.67-.52,3.05-1.56,4.13-1.17,1.21-2.61,1.81-4.32,1.81s-3.14-.6-4.31-1.81c-1.04-1.08-1.56-2.46-1.56-4.13V5.52h2.39Z"/><path class="cls-1" d="m41.9,21.39V5.52h3.33c1.6,0,2.86.16,3.78.47.99.31,1.89.83,2.7,1.57,1.64,1.49,2.46,3.46,2.46,5.89s-.85,4.41-2.56,5.92c-.86.75-1.75,1.28-2.69,1.57-.88.29-2.12.44-3.73.44h-3.29Zm2.39-2.25h1.08c1.08,0,1.97-.11,2.68-.34.71-.24,1.36-.62,1.93-1.14,1.18-1.08,1.77-2.48,1.77-4.2s-.58-3.15-1.75-4.23c-1.05-.97-2.59-1.45-4.63-1.45h-1.08v11.36Z"/><path class="cls-1" d="m59.58,5.52v15.86h-2.39V5.52h2.39Z"/><path class="cls-1" d="m62.6,13.38c0-2.23.82-4.15,2.46-5.75,1.63-1.6,3.59-2.4,5.88-2.4s4.2.81,5.82,2.43c1.62,1.62,2.44,3.56,2.44,5.83s-.81,4.22-2.45,5.81c-1.64,1.6-3.61,2.39-5.93,2.39-2.05,0-3.89-.71-5.52-2.13-1.79-1.57-2.69-3.62-2.69-6.17Zm2.41.03c0,1.75.59,3.2,1.77,4.33,1.17,1.13,2.52,1.7,4.06,1.7,1.66,0,3.07-.58,4.21-1.73,1.14-1.16,1.72-2.58,1.72-4.25s-.56-3.11-1.7-4.25c-1.12-1.15-2.51-1.73-4.17-1.73s-3.04.58-4.18,1.73c-1.14,1.14-1.71,2.54-1.71,4.21Z"/><path class="cls-1" d="m59.6,23.61v13.61h8.47v2.25h-10.87v-15.86h2.39Z"/><path class="cls-1" d="m67.72,23.61l4.39,10.99,4.45-10.99h2.62l-7.12,17.06-6.96-17.06h2.62Z"/><rect class="cls-1" x="85.05" y="1.23" width="2.1" height="42.54"/></svg>